<?xml version="1.0" ?><!-- Uploaded to: SVG Repo, www.svgrepo.com, Generator: SVG Repo Mixer Tools -->
<svg fill="#000000" width="800px" height="800px" viewBox="0 0 35 35" data-name="Layer 2" id="e2a77c4e-abec-442a-bd4d-4f68a77f55af" xmlns="http://www.w3.org/2000/svg"><path d="M9.1,34.75c-.047,0-.093,0-.139,0L3.8,34.541A3.5,3.5,0,0,1,.46,31.2L.253,26.04a3.49,3.49,0,0,1,1.016-2.6L22.676,2.034a6.087,6.087,0,0,1,8.611,0l1.68,1.679a6.1,6.1,0,0,1,0,8.611L11.559,33.731A3.483,3.483,0,0,1,9.1,34.75Zm17.882-32A3.562,3.562,0,0,0,24.444,3.8L3.037,25.208a.982.982,0,0,0-.286.732L2.958,31.1a.985.985,0,0,0,.939.94l5.164.206a.969.969,0,0,0,.731-.286L31.2,10.556a3.594,3.594,0,0,0,0-5.076L29.52,3.8A3.563,3.563,0,0,0,26.982,2.75Z"/><rect height="11.344" transform="translate(-0.758 20.188) rotate(-45)" width="2.5" x="22.74" y="5.338"/></svg>